<svg width="130" height="38" viewBox="0 0 130 38" fill="none" xmlns="http://www.w3.org/2000/svg">
<g filter="url(#filter0_d_1_444)">
<path d="M46.776 15.04L46.512 15.112V7.72H48.792V25H46.728L46.56 23.2C46.16 23.744 45.616 24.208 44.928 24.592C44.256 24.976 43.432 25.168 42.456 25.168C41.368 25.168 40.416 24.912 39.6 24.4C38.8 23.888 38.168 23.168 37.704 22.24C37.256 21.312 37.032 20.232 37.032 19C37.032 17.768 37.256 16.688 37.704 15.76C38.168 14.832 38.8 14.112 39.6 13.6C40.416 13.088 41.368 12.832 42.456 12.832C43.496 12.832 44.376 13.048 45.096 13.48C45.832 13.896 46.392 14.416 46.776 15.04ZM39.456 19C39.456 20.232 39.776 21.224 40.416 21.976C41.056 22.728 41.912 23.104 42.984 23.104C43.64 23.104 44.232 22.944 44.76 22.624C45.288 22.304 45.712 21.84 46.032 21.232C46.352 20.608 46.512 19.864 46.512 19C46.512 18.136 46.352 17.4 46.032 16.792C45.712 16.184 45.288 15.72 44.76 15.4C44.232 15.064 43.64 14.896 42.984 14.896C41.928 14.896 41.072 15.272 40.416 16.024C39.776 16.776 39.456 17.768 39.456 19ZM56.9884 25H54.8284L51.0604 13H53.3644L55.8844 22.312L58.5724 13H60.7324L63.3244 22.264L65.8204 13H68.0524L64.3324 25H62.1484L59.5804 16.288L56.9884 25ZM75.3266 25.168C74.1746 25.168 73.1506 24.904 72.2546 24.376C71.3746 23.832 70.6786 23.088 70.1666 22.144C69.6706 21.2 69.4226 20.12 69.4226 18.904C69.4226 17.736 69.6706 16.696 70.1666 15.784C70.6626 14.872 71.3426 14.152 72.2066 13.624C73.0866 13.096 74.0786 12.832 75.1826 12.832C76.3026 12.832 77.2946 13.08 78.1586 13.576C79.0226 14.056 79.6946 14.736 80.1746 15.616C80.6546 16.48 80.8866 17.48 80.8706 18.616C80.8706 18.808 80.8626 19.008 80.8466 19.216C80.8306 19.408 80.8066 19.624 80.7746 19.864H71.8946C71.9426 20.504 72.1186 21.072 72.4226 21.568C72.7426 22.048 73.1426 22.424 73.6226 22.696C74.1186 22.968 74.6786 23.104 75.3026 23.104C76.1026 23.104 76.7986 22.952 77.3906 22.648C77.9826 22.328 78.3986 21.904 78.6386 21.376L80.6066 22.072C80.1266 23.048 79.4226 23.808 78.4946 24.352C77.5826 24.896 76.5266 25.168 75.3266 25.168ZM78.3986 17.92C78.3986 17.344 78.2546 16.824 77.9666 16.36C77.6786 15.896 77.2866 15.536 76.7906 15.28C76.3106 15.008 75.7666 14.872 75.1586 14.872C74.6146 14.872 74.1106 15.008 73.6466 15.28C73.1986 15.536 72.8146 15.896 72.4946 16.36C72.1906 16.808 71.9986 17.328 71.9186 17.92H78.3986ZM83.6421 7.72H85.8981V25H83.6421V7.72ZM89.3374 7.72H91.5934V25H89.3374V7.72ZM95.3927 13H97.6727V25H95.3927V13ZM96.5447 10.888C96.1127 10.888 95.7527 10.744 95.4647 10.456C95.1767 10.168 95.0327 9.816 95.0327 9.4C95.0327 8.968 95.1767 8.608 95.4647 8.32C95.7527 8.016 96.1127 7.864 96.5447 7.864C96.9607 7.864 97.3127 8.016 97.6007 8.32C97.9047 8.608 98.0567 8.968 98.0567 9.4C98.0567 9.816 97.9047 10.168 97.6007 10.456C97.3127 10.744 96.9607 10.888 96.5447 10.888ZM101.455 13H103.519L103.663 14.392C104.047 13.896 104.535 13.512 105.127 13.24C105.719 12.968 106.375 12.832 107.095 12.832C108.023 12.832 108.823 13.032 109.495 13.432C110.183 13.816 110.711 14.392 111.079 15.16C111.463 15.928 111.655 16.888 111.655 18.04V25H109.399V18.328C109.399 17.208 109.159 16.36 108.679 15.784C108.215 15.192 107.535 14.896 106.639 14.896C105.711 14.896 104.991 15.2 104.479 15.808C103.967 16.4 103.711 17.28 103.711 18.448V25H101.455V13ZM123.908 13H125.972V23.032C125.972 24.44 125.636 25.648 124.964 26.656C124.292 27.664 123.324 28.44 122.06 28.984C120.812 29.528 119.3 29.8 117.524 29.8L117.164 27.808C119.308 27.76 120.932 27.328 122.036 26.512C123.14 25.712 123.692 24.552 123.692 23.032V22.912L123.956 22.936C123.572 23.544 123.02 24.072 122.3 24.52C121.596 24.952 120.716 25.168 119.66 25.168C118.588 25.168 117.636 24.912 116.804 24.4C115.988 23.888 115.348 23.168 114.884 22.24C114.436 21.312 114.212 20.232 114.212 19C114.212 17.768 114.436 16.688 114.884 15.76C115.348 14.832 115.988 14.112 116.804 13.6C117.636 13.088 118.588 12.832 119.66 12.832C120.316 12.832 120.9 12.92 121.412 13.096C121.94 13.272 122.396 13.512 122.78 13.816C123.164 14.104 123.484 14.432 123.74 14.8L123.908 13ZM116.636 19C116.636 20.232 116.956 21.224 117.596 21.976C118.252 22.728 119.124 23.104 120.212 23.104C120.852 23.104 121.436 22.944 121.964 22.624C122.492 22.288 122.908 21.816 123.212 21.208C123.532 20.584 123.692 19.848 123.692 19C123.692 18.136 123.532 17.4 123.212 16.792C122.908 16.184 122.484 15.72 121.94 15.4C121.412 15.064 120.836 14.896 120.212 14.896C119.124 14.896 118.252 15.272 117.596 16.024C116.956 16.776 116.636 17.768 116.636 19Z" fill="#191623"/>
<path d="M26.6519 13.3276L29.9664 16.5294C29.9822 16.5446 29.993 16.5641 29.9976 16.5855C30.0022 16.6069 30.0002 16.6292 29.992 16.6495C29.9838 16.6697 29.9697 16.6871 29.9515 16.6993C29.9334 16.7115 29.912 16.718 29.8901 16.718H26.6519V29H20.5099V21.1053H13.4905V29H7.34849V16.7193H4.1099C4.08802 16.7193 4.06662 16.7128 4.04846 16.7006C4.03031 16.6884 4.01622 16.6711 4.00801 16.6508C3.9998 16.6305 3.99785 16.6082 4.0024 16.5868C4.00696 16.5654 4.01781 16.5459 4.03356 16.5307L17.0002 4L22.7035 9.51184V7.07018H26.6519V13.3276Z" fill="url(#paint0_linear_1_444)"/>
</g>
<defs>
<filter id="filter0_d_1_444" x="0" y="4" width="129.972" height="33.8" filterUnits="userSpaceOnUse" color-interpolation-filters="sRGB">
<feFlood flood-opacity="0" result="BackgroundImageFix"/>
<feColorMatrix in="SourceAlpha" type="matrix" values="0 0 0 0 0 0 0 0 0 0 0 0 0 0 0 0 0 0 127 0" result="hardAlpha"/>
<feOffset dy="4"/>
<feGaussianBlur stdDeviation="2"/>
<feComposite in2="hardAlpha" operator="out"/>
<feColorMatrix type="matrix" values="0 0 0 0 0 0 0 0 0 0 0 0 0 0 0 0 0 0 0.25 0"/>
<feBlend mode="normal" in2="BackgroundImageFix" result="effect1_dropShadow_1_444"/>
<feBlend mode="normal" in="SourceGraphic" in2="effect1_dropShadow_1_444" result="shape"/>
</filter>
<linearGradient id="paint0_linear_1_444" x1="4" y1="17" x2="30" y2="17" gradientUnits="userSpaceOnUse">
<stop stop-color="#FD5F0E"/>
<stop offset="1" stop-color="#EF126D"/>
</linearGradient>
</defs>
</svg>
